<?xml version="1.0" encoding="utf-8"?>
<!-- Generator: Adobe Illustrator 16.0.0, SVG Export Plug-In . SVG Version: 6.00 Build 0)  -->
<!DOCTYPE svg PUBLIC "-//W3C//DTD SVG 1.1//EN" "http://www.w3.org/Graphics/SVG/1.1/DTD/svg11.dtd">
<svg version="1.1" id="Capa_1" xmlns="http://www.w3.org/2000/svg" xmlns:xlink="http://www.w3.org/1999/xlink" x="0px" y="0px"
	 width="60px" height="60px" viewBox="0 0 60 60" enable-background="new 0 0 60 60" xml:space="preserve">
<line fill="none" stroke="#221F1F" stroke-width="0.5" stroke-miterlimit="10" x1="101.467" y1="51.175" x2="101.467" y2="10.825"/>
<line fill="none" stroke="#221F1F" stroke-width="0.5" stroke-miterlimit="10" x1="115.596" y1="16.309" x2="87.348" y2="45.684"/>
<line fill="none" stroke="#221F1F" stroke-width="0.5" stroke-miterlimit="10" x1="117.083" y1="44.171" x2="85.859" y2="17.838"/>
<circle fill="#FFFFFF" cx="101.463" cy="31.002" r="4.047"/>
<g>
	<path fill="#FFFFFF" d="M126.123,31.014c0,1.942-1.562,3.522-3.523,3.522c-1.941,0-3.522-1.58-3.522-3.522
		c0-1.961,1.581-3.542,3.522-3.542C124.561,27.472,126.123,29.053,126.123,31.014z"/>
	<g>
		<g>
			<path d="M127,31.014c0,2.44-2.027,4.383-4.4,4.383c-2.432,0-4.398-1.994-4.398-4.383c0-2.458,2.027-4.417,4.398-4.417
				C124.973,26.596,127,28.555,127,31.014z M125.745,30.961c0-1.753-1.409-3.18-3.146-3.18c-1.754,0-3.181,1.427-3.181,3.18
				s1.427,3.182,3.181,3.182C124.336,34.143,125.745,32.714,125.745,30.961z"/>
		</g>
	</g>
</g>
<g>
	<g>
		<path d="M85.8,31.014c0,2.44-2.028,4.383-4.399,4.383c-2.441,0-4.4-1.994-4.4-4.383c0-2.458,2.027-4.417,4.4-4.417
			C83.771,26.596,85.8,28.555,85.8,31.014z M84.545,30.961c0-1.753-1.426-3.18-3.145-3.18c-1.771,0-3.18,1.427-3.18,3.18
			s1.409,3.182,3.18,3.182C83.119,34.143,84.545,32.714,84.545,30.961z"/>
	</g>
</g>
<g>
	<path fill="#FFFFFF" d="M104.991,30.995c0,1.961-1.563,3.541-3.524,3.541c-1.941,0-3.523-1.58-3.523-3.541
		c0-1.959,1.582-3.54,3.523-3.54C103.427,27.455,104.991,29.036,104.991,30.995z"/>
	<path fill="#FFFFFF" d="M104.991,31.014c0,1.942-1.563,3.522-3.524,3.522c-1.941,0-3.523-1.58-3.523-3.522
		c0-1.961,1.582-3.542,3.523-3.542C103.427,27.472,104.991,29.053,104.991,31.014z"/>
	<g>
		<g>
			<path d="M105.867,31.014c0,2.44-2.028,4.383-4.4,4.383c-2.432,0-4.4-1.994-4.4-4.383c0-2.458,2.029-4.417,4.4-4.417
				C103.839,26.596,105.867,28.555,105.867,31.014z M104.611,30.961c0-1.753-1.408-3.18-3.146-3.18c-1.753,0-3.179,1.427-3.179,3.18
				s1.426,3.182,3.179,3.182C103.203,34.143,104.611,32.714,104.611,30.961z"/>
		</g>
	</g>
</g>
<line fill="none" stroke="#221F1F" stroke-width="1.5" stroke-miterlimit="10" x1="80.695" y1="31.004" x2="123.373" y2="31.004"/>
<g>
	<line fill="#575A5B" x1="15.697" y1="44.304" x2="44.305" y2="15.696"/>
	
		<rect x="29.751" y="9.771" transform="matrix(0.7081 0.7061 -0.7061 0.7081 29.9418 -12.4271)" fill="#575A5B" width="0.501" height="40.458"/>
</g>
<g>
	<line fill="#575A5B" x1="29.999" y1="50.229" x2="30" y2="9.771"/>
	<rect x="29.75" y="9.771" fill="#575A5B" width="0.5" height="40.458"/>
</g>
<g>
	<line fill="#575A5B" x1="15.696" y1="15.696" x2="44.303" y2="44.304"/>
	
		<rect x="29.75" y="9.771" transform="matrix(-0.7071 0.7071 -0.7071 -0.7071 72.426 30.0002)" fill="#575A5B" width="0.5" height="40.457"/>
</g>
<g>
	<rect x="13.404" y="28.606" fill="#575A5B" width="33.066" height="2.5"/>
</g>
<g>
	<path fill="#575A5B" d="M20.109,30.07c0,3.461-2.815,6.278-6.277,6.278c-3.461,0-6.275-2.816-6.275-6.277
		c0-3.459,2.814-6.275,6.275-6.275C17.294,23.794,20.108,26.611,20.109,30.07 M9.648,30.07c0,2.307,1.877,4.184,4.185,4.184
		s4.184-1.876,4.184-4.184c0.001-2.304-1.877-4.184-4.185-4.184C11.525,25.886,9.648,27.765,9.648,30.07"/>
</g>
<g>
	<path fill="#575A5B" d="M52.443,29.928c0,3.46-2.814,6.277-6.275,6.277c-3.462,0-6.278-2.816-6.278-6.277
		c0-3.461,2.817-6.276,6.278-6.276S52.443,26.467,52.443,29.928 M41.983,29.928c0,2.306,1.877,4.185,4.185,4.185
		c2.306,0,4.184-1.879,4.184-4.185c0-2.307-1.878-4.183-4.184-4.183C43.859,25.744,41.982,27.621,41.983,29.928"/>
</g>
<path fill="#FFFFFF" d="M31.57,31.242c-0.675,0.675-1.769,0.681-2.449,0c-0.676-0.676-0.674-1.773,0-2.448
	c0.676-0.675,1.772-0.676,2.448,0C32.25,29.475,32.245,30.567,31.57,31.242z"/>
<g>
	<g>
		<path d="M31.642,31.564c-0.86,0.859-2.258,0.824-3.094-0.012c-0.86-0.86-0.849-2.257-0.012-3.094
			c0.859-0.859,2.27-0.834,3.104,0.001C32.477,29.295,32.501,30.704,31.642,31.564z M31.211,31.109
			c0.622-0.621,0.622-1.624,0.013-2.232c-0.621-0.622-1.624-0.622-2.245,0c-0.609,0.609-0.61,1.612,0.012,2.234
			C29.599,31.72,30.602,31.72,31.211,31.109z"/>
	</g>
</g>
</svg>
