<?xml version="1.0" encoding="utf-8"?>
<!-- Generator: Adobe Illustrator 16.0.0, SVG Export Plug-In . SVG Version: 6.00 Build 0)  -->
<!DOCTYPE svg PUBLIC "-//W3C//DTD SVG 1.1//EN" "http://www.w3.org/Graphics/SVG/1.1/DTD/svg11.dtd">
<svg version="1.1" id="Capa_1" xmlns="http://www.w3.org/2000/svg" xmlns:xlink="http://www.w3.org/1999/xlink" x="0px" y="0px"
	 width="60px" height="60px" viewBox="0 0 60 60" enable-background="new 0 0 60 60" xml:space="preserve">
<circle fill="#5F6F81" cx="102.737" cy="11.29" r="4.891"/>
<circle fill="#5F6F81" cx="102.737" cy="43.619" r="4.891"/>
<g>
	<rect x="87.939" y="19.406" fill="#5F6F81" width="29.702" height="2.5"/>
</g>
<g>
	<rect x="88.305" y="33.708" fill="#5F6F81" width="14.312" height="2.5"/>
</g>
<g>
	<rect x="78.263" y="-27.906" fill="#575A5B" width="2.5" height="22.642"/>
</g>
<g>
	<rect x="101.988" y="11.182" fill="#5F6F81" width="1.499" height="32.372"/>
</g>
<path fill="#FFFFFF" d="M106.138,11.443c0,1.54-1.238,2.78-2.765,2.78c-1.533,0-2.771-1.24-2.771-2.78
	c0-1.534,1.235-2.778,2.771-2.778C104.899,8.666,106.138,9.909,106.138,11.443z"/>
<g>
	<path fill="#FFFFFF" d="M105.508,11.291c0,1.537-1.237,2.777-2.77,2.777c-1.527,0-2.771-1.24-2.771-2.777
		c0-1.538,1.244-2.777,2.771-2.777C104.271,8.514,105.508,9.753,105.508,11.291z"/>
	<g>
		<g>
			<path fill="#5F6F81" d="M106.196,11.304c0,1.909-1.594,3.446-3.458,3.446c-1.92,0-3.461-1.577-3.461-3.446
				c0-1.935,1.596-3.473,3.461-3.473C104.603,7.831,106.196,9.369,106.196,11.304z M105.211,11.264c0-1.389-1.116-2.5-2.473-2.5
				c-1.385,0-2.5,1.111-2.5,2.5c0,1.379,1.115,2.5,2.5,2.5C104.095,13.764,105.211,12.643,105.211,11.264z"/>
		</g>
	</g>
</g>
<g>
	<circle fill="#5F6F81" cx="86.048" cy="27.807" r="4.892"/>
	<path fill="#FFFFFF" d="M88.818,27.808c0,1.537-1.229,2.777-2.77,2.777c-1.527,0-2.771-1.24-2.771-2.777
		c0-1.538,1.244-2.778,2.771-2.778C87.589,25.029,88.818,26.27,88.818,27.808z"/>
	<g>
		<g>
			<path fill="#5F6F81" d="M89.508,27.82c0,1.909-1.596,3.448-3.459,3.448c-1.912-0.002-3.46-1.58-3.46-3.448
				c0-1.936,1.595-3.473,3.46-3.473C87.912,24.348,89.508,25.884,89.508,27.82z M88.521,27.779c0-1.389-1.107-2.5-2.473-2.5
				c-1.379,0-2.5,1.111-2.5,2.5c0,1.38,1.121,2.5,2.5,2.5C87.412,30.28,88.521,29.159,88.521,27.779z"/>
		</g>
	</g>
</g>
<path fill="#FFFFFF" d="M105.927,43.417c0,1.541-1.242,2.77-2.77,2.77c-1.528,0-2.771-1.229-2.771-2.77
	c0-1.539,1.242-2.783,2.771-2.783C104.685,40.634,105.927,41.878,105.927,43.417z"/>
<g>
	<g>
		<path fill="#5F6F81" d="M106.196,43.634c0,1.904-1.594,3.445-3.458,3.445c-1.92,0-3.461-1.582-3.461-3.445
			c0-1.947,1.596-3.473,3.461-3.473C104.603,40.161,106.196,41.687,106.196,43.634z M105.211,43.593c0-1.391-1.116-2.5-2.473-2.5
			c-1.385,0-2.5,1.109-2.5,2.5c0,1.379,1.115,2.5,2.5,2.5C104.095,46.093,105.211,44.972,105.211,43.593z"/>
	</g>
</g>
<g>
	<circle fill="#5F6F81" cx="119.129" cy="27.807" r="4.891"/>
	<path fill="#FFFFFF" d="M121.899,27.812c0,1.534-1.229,2.771-2.77,2.771c-1.527,0-2.771-1.237-2.771-2.771
		c0-1.539,1.243-2.783,2.771-2.783C120.67,25.029,121.899,26.273,121.899,27.812z"/>
	<g>
		<g>
			<path fill="#5F6F81" d="M122.589,27.82c0,1.913-1.595,3.448-3.459,3.448c-1.913,0-3.46-1.575-3.46-3.448
				c0-1.938,1.596-3.473,3.46-3.473S122.589,25.881,122.589,27.82z M121.603,27.779c0-1.386-1.108-2.5-2.473-2.5
				c-1.379,0-2.5,1.114-2.5,2.5c0,1.38,1.121,2.5,2.5,2.5C120.494,30.28,121.603,29.159,121.603,27.779z"/>
		</g>
	</g>
</g>
<g>
	<path fill="#FFFFFF" d="M74.209-32.501c0,2.889,2.341,5.23,5.23,5.23c2.888,0,5.229-2.342,5.229-5.23s-2.342-5.229-5.229-5.229
		C76.55-37.731,74.209-35.39,74.209-32.501"/>
	<path fill="#575A5B" d="M79.439-26.225c-3.461,0-6.276-2.814-6.276-6.276c0-3.461,2.815-6.275,6.276-6.275
		c3.46,0,6.276,2.814,6.276,6.275C85.716-29.04,82.899-26.225,79.439-26.225 M79.439-36.685c-2.308,0-4.184,1.877-4.184,4.184
		c0,2.308,1.876,4.185,4.184,4.185c2.306,0,4.185-1.877,4.185-4.185C83.624-34.808,81.745-36.685,79.439-36.685"/>
</g>
<g>
	<path fill="#FFFFFF" d="M74.209-0.024c0,2.888,2.342,5.229,5.23,5.229c2.89,0,5.231-2.342,5.231-5.229
		c0-2.89-2.342-5.23-5.231-5.23C76.551-5.254,74.209-2.914,74.209-0.024"/>
	<path fill="#575A5B" d="M79.439,6.252c-3.461,0-6.275-2.815-6.275-6.276s2.814-6.277,6.275-6.277c3.462,0,6.276,2.816,6.276,6.277
		S82.901,6.252,79.439,6.252 M79.439-4.208c-2.307,0-4.184,1.877-4.184,4.185c0,2.306,1.877,4.184,4.184,4.184
		c2.308,0,4.185-1.878,4.185-4.184C83.624-2.332,81.747-4.208,79.439-4.208"/>
</g>
<g>
	<path fill="#FFFFFF" d="M63.273-10.959c2.889,0,5.23-2.34,5.23-5.23c0-2.888-2.342-5.229-5.23-5.229s-5.229,2.342-5.229,5.229
		C58.044-13.299,60.385-10.959,63.273-10.959"/>
	<path fill="#575A5B" d="M69.55-16.19c0,3.461-2.814,6.277-6.276,6.277c-3.461,0-6.275-2.816-6.275-6.277
		c0-3.46,2.814-6.276,6.275-6.276C66.735-22.466,69.55-19.65,69.55-16.19 M59.09-16.19c0,2.309,1.877,4.184,4.184,4.184
		c2.308,0,4.185-1.875,4.185-4.184c0-2.306-1.877-4.185-4.185-4.185C60.967-20.375,59.09-18.496,59.09-16.19"/>
</g>
<g>
	<path fill="#FFFFFF" d="M95.752-10.958c2.887,0,5.229-2.342,5.229-5.23c0-2.89-2.342-5.231-5.229-5.231
		c-2.891,0-5.23,2.343-5.23,5.232C90.521-13.299,92.861-10.958,95.752-10.958"/>
	<path fill="#575A5B" d="M102.027-16.189c0,3.461-2.814,6.275-6.275,6.275c-3.461,0.001-6.277-2.813-6.277-6.274
		c0-3.462,2.816-6.276,6.277-6.277C99.213-22.465,102.027-19.651,102.027-16.189 M91.566-16.188c0,2.307,1.877,4.183,4.186,4.183
		c2.305,0,4.184-1.877,4.184-4.184c0-2.308-1.879-4.185-4.184-4.185C93.443-20.374,91.566-18.496,91.566-16.188"/>
</g>
<rect x="69.819" y="-14.065" transform="matrix(-0.7074 0.7069 -0.7069 -0.7074 115.2517 -63.7302)" fill="#575A5B" width="1.999" height="12.115"/>
<rect x="79.426" y="-25.012" fill="#575A5B" width="12.115" height="1.998"/>
<g>
	
		<rect x="36.575" y="11.178" transform="matrix(0.7073 -0.7069 0.7069 0.7073 -4.8336 33.3241)" fill="#575A5B" width="2.499" height="22.641"/>
</g>
<g>
	
		<rect x="21.191" y="26.888" transform="matrix(0.7074 -0.7068 0.7068 0.7074 -20.4405 27.0413)" fill="#575A5B" width="2.499" height="22.641"/>
</g>
<g>
	<path fill="#FFFFFF" d="M24.699,13.832c0,2.888,2.341,5.229,5.229,5.229c2.888,0,5.229-2.341,5.229-5.229
		c0-2.89-2.342-5.229-5.229-5.229C27.04,8.602,24.699,10.942,24.699,13.832"/>
	<path fill="#575A5B" d="M29.93,20.108c-3.461,0-6.277-2.814-6.276-6.276c0-3.461,2.814-6.275,6.275-6.275
		c3.46,0,6.276,2.814,6.276,6.275C36.205,17.294,33.389,20.107,29.93,20.108 M29.93,9.647c-2.308,0-4.184,1.877-4.184,4.185
		s1.876,4.184,4.184,4.184c2.305,0.001,4.184-1.877,4.184-4.185C34.113,11.524,32.234,9.647,29.93,9.647"/>
</g>
<g>
	<path fill="#FFFFFF" d="M24.842,46.166c-0.001,2.889,2.342,5.231,5.229,5.23c2.89,0,5.231-2.343,5.231-5.229
		c0-2.89-2.342-5.23-5.231-5.23C27.184,40.937,24.842,43.277,24.842,46.166"/>
	<path fill="#575A5B" d="M30.071,52.443c-3.461,0-6.276-2.815-6.276-6.276s2.815-6.277,6.276-6.277s6.276,2.817,6.276,6.278
		S33.532,52.443,30.071,52.443 M30.071,41.983c-2.306,0-4.184,1.876-4.185,4.185c0.001,2.304,1.879,4.183,4.186,4.183
		s4.183-1.878,4.184-4.184C34.256,43.858,32.379,41.981,30.071,41.983"/>
</g>
<g>
	<rect x="18.285" y="28.605" fill="#575A5B" width="22.643" height="2.5"/>
</g>
<g>
	<path fill="#FFFFFF" d="M13.832,35.301c2.889-0.001,5.23-2.341,5.23-5.229c0.001-2.889-2.341-5.23-5.23-5.23
		c-2.889,0-5.229,2.342-5.229,5.229C8.603,32.96,10.943,35.301,13.832,35.301"/>
	<path fill="#575A5B" d="M20.108,30.07c0,3.461-2.813,6.276-6.276,6.276c-3.461,0-6.275-2.816-6.275-6.277
		c0-3.458,2.814-6.275,6.275-6.275S20.107,26.611,20.108,30.07 M9.647,30.069c0.002,2.308,1.878,4.184,4.185,4.185
		c2.309-0.001,4.185-1.876,4.185-4.185c0-2.304-1.877-4.184-4.186-4.184C11.524,25.886,9.649,27.765,9.647,30.069"/>
</g>
<g>
	<path fill="#FFFFFF" d="M46.168,35.158c2.888,0,5.229-2.342,5.229-5.23c0.001-2.889-2.341-5.23-5.229-5.23
		c-2.89,0-5.23,2.342-5.231,5.23C40.938,32.816,43.278,35.158,46.168,35.158"/>
	<path fill="#575A5B" d="M52.443,29.928c0,3.461-2.814,6.276-6.275,6.276c-3.462,0-6.278-2.815-6.278-6.276s2.817-6.275,6.278-6.275
		S52.443,26.467,52.443,29.928 M41.983,29.928c0,2.307,1.877,4.185,4.185,4.185c2.306,0,4.184-1.878,4.184-4.185
		s-1.878-4.183-4.184-4.183C43.859,25.744,41.982,27.621,41.983,29.928"/>
</g>
<path fill="#FFFFFF" d="M31.57,31.242c-0.675,0.675-1.769,0.681-2.449-0.001c-0.676-0.675-0.674-1.772,0-2.447
	c0.676-0.675,1.772-0.676,2.448,0C32.25,29.475,32.245,30.567,31.57,31.242z"/>
<g>
	<g>
		<path d="M31.642,31.563c-0.86,0.86-2.258,0.824-3.094-0.011c-0.86-0.86-0.849-2.258-0.012-3.095
			c0.859-0.859,2.27-0.834,3.104,0.001C32.477,29.295,32.501,30.704,31.642,31.563z M31.211,31.109
			c0.622-0.621,0.622-1.624,0.013-2.232c-0.621-0.622-1.624-0.622-2.245,0c-0.609,0.608-0.61,1.612,0.012,2.233
			C29.599,31.72,30.602,31.72,31.211,31.109z"/>
	</g>
</g>
</svg>
