<?xml version="1.0" encoding="utf-8"?>
<!-- Generator: Adobe Illustrator 16.0.0, SVG Export Plug-In . SVG Version: 6.00 Build 0)  -->
<!DOCTYPE svg PUBLIC "-//W3C//DTD SVG 1.1//EN" "http://www.w3.org/Graphics/SVG/1.1/DTD/svg11.dtd">
<svg version="1.1" id="Capa_1" xmlns="http://www.w3.org/2000/svg" xmlns:xlink="http://www.w3.org/1999/xlink" x="0px" y="0px"
	 width="60px" height="60px" viewBox="0 0 60 60" enable-background="new 0 0 60 60" xml:space="preserve">
<g>
	<rect x="29.75" y="5.005" fill="#575A5B" width="0.5" height="49.989"/>
</g>
<g>
	<rect x="5" y="29.75" fill="#575A5B" width="50" height="0.5"/>
</g>
<ellipse fill="#FFFFFF" cx="29.879" cy="32.012" rx="2.599" ry="5.826"/>
<g>
	<g>
		<g>
			<path fill="#575A5B" d="M35.342,41.568c-5.182,0-9.397-4.216-9.397-9.397c0-5.18,4.216-9.395,9.397-9.395
				s9.397,4.215,9.397,9.395C44.739,37.353,40.523,41.568,35.342,41.568z M35.342,24.876c-4.024,0-7.298,3.273-7.298,7.295
				c0,4.024,3.273,7.298,7.298,7.298s7.298-3.273,7.298-7.298C42.64,28.149,39.366,24.876,35.342,24.876z"/>
		</g>
		<g>
			<path fill="#575A5B" d="M24.657,41.568c-5.182,0-9.396-4.216-9.396-9.397c0-5.18,4.215-9.395,9.396-9.395
				c5.183,0,9.398,4.215,9.398,9.395C34.056,37.353,29.84,41.568,24.657,41.568z M24.657,24.876c-4.023,0-7.297,3.273-7.297,7.295
				c0,4.024,3.273,7.298,7.297,7.298c4.024,0,7.299-3.273,7.299-7.298C31.956,28.149,28.682,24.876,24.657,24.876z"/>
		</g>
	</g>
	<g>
		<path fill="#575A5B" d="M30.001,33.555c-5.183,0-9.398-4.289-9.398-9.562s4.216-9.563,9.398-9.563c5.181,0,9.396,4.29,9.396,9.563
			S35.182,33.555,30.001,33.555z M30.001,16.528c-4.024,0-7.299,3.348-7.299,7.464c0,4.115,3.274,7.463,7.299,7.463
			c4.023,0,7.297-3.348,7.297-7.463C37.298,19.876,34.024,16.528,30.001,16.528z"/>
	</g>
</g>
<g>
	<line fill="#575A5B" x1="192.643" y1="-4.361" x2="192.643" y2="-44.818"/>
	<rect x="192.393" y="-44.818" fill="#575A5B" width="0.5" height="40.457"/>
</g>
<g>
	
		<rect x="191.216" y="-36.29" transform="matrix(0.7071 -0.7071 0.7071 0.7071 74.028 128.7809)" fill="#575A5B" width="2.5" height="22.642"/>
</g>
<g>
	<path fill="#FFFFFF" d="M177.462-32.273c2.042,2.042,5.354,2.043,7.396,0c2.042-2.042,2.042-5.354-0.001-7.396
		c-2.043-2.043-5.354-2.042-7.395-0.001C175.419-37.626,175.419-34.316,177.462-32.273"/>
	<path fill="#575A5B" d="M185.599-31.534c-2.447,2.447-6.429,2.448-8.876,0c-2.447-2.447-2.447-6.428,0-8.875
		c2.446-2.446,6.428-2.447,8.875,0C188.046-37.961,188.044-33.98,185.599-31.534 M178.202-38.93c-1.632,1.632-1.632,4.285,0,5.917
		s4.285,1.632,5.917,0c1.63-1.629,1.631-4.285-0.001-5.917C182.487-40.561,179.832-40.56,178.202-38.93"/>
</g>
<g>
	<path fill="#FFFFFF" d="M200.427-9.509c2.042,2.042,5.354,2.042,7.396-0.001c2.043-2.042,2.043-5.354,0.001-7.396
		c-2.043-2.043-5.354-2.042-7.397,0C198.385-14.864,198.384-11.552,200.427-9.509"/>
	<path fill="#575A5B" d="M208.563-8.77c-2.447,2.447-6.429,2.447-8.876,0s-2.448-6.43-0.001-8.877s6.43-2.445,8.877,0.002
		S211.011-11.217,208.563-8.77 M201.167-16.167c-1.631,1.631-1.632,4.286,0,5.918c1.63,1.63,4.286,1.63,5.917-0.001
		s1.63-4.286,0-5.916C205.452-17.798,202.798-17.798,201.167-16.167"/>
</g>
<g>
	
		<rect x="191.013" y="-35.734" transform="matrix(-0.7071 -0.7071 0.7071 -0.7071 345.4756 94.2745)" fill="#575A5B" width="2.5" height="22.642"/>
</g>
<g>
	<path fill="#FFFFFF" d="M184.959-9.409c2.042-2.042,2.043-5.354,0-7.396c-2.042-2.042-5.354-2.042-7.396,0.001
		s-2.041,5.354,0,7.395C179.605-7.366,182.916-7.366,184.959-9.409"/>
	<path fill="#575A5B" d="M185.698-17.545c2.447,2.447,2.448,6.429,0,8.877c-2.447,2.447-6.429,2.446-8.876-0.001
		c-2.445-2.446-2.447-6.428,0-8.875C179.27-19.993,183.252-19.991,185.698-17.545 M178.301-10.149c1.633,1.632,4.286,1.632,5.918,0
		s1.632-4.285,0-5.917c-1.629-1.63-4.285-1.631-5.918,0.001C176.67-14.434,176.672-11.779,178.301-10.149"/>
</g>
<g>
	<g>
		<path fill="#FFFFFF" d="M196.104-41.289c0,1.926-1.553,3.463-3.461,3.463s-3.463-1.537-3.463-3.463s1.555-3.479,3.463-3.479
			S196.104-43.214,196.104-41.289z"/>
		<g>
			<g>
				<path fill="#575A5B" d="M196.967-41.272c0,2.382-1.994,4.308-4.324,4.308c-2.398,0-4.324-1.977-4.324-4.308
					c0-2.433,1.994-4.341,4.324-4.341S196.967-43.705,196.967-41.272z M195.732-41.323c0-1.738-1.4-3.125-3.09-3.125
					c-1.738,0-3.125,1.387-3.125,3.125c0,1.724,1.387,3.125,3.125,3.125C194.33-38.198,195.732-39.599,195.732-41.323z"/>
			</g>
		</g>
	</g>
	<g>
		<path fill="#FFFFFF" d="M196.104-7.89c0,1.926-1.553,3.463-3.461,3.463s-3.463-1.537-3.463-3.463c0-1.927,1.555-3.479,3.463-3.479
			S196.104-9.817,196.104-7.89z"/>
		<g>
			<g>
				<path fill="#575A5B" d="M196.967-7.874c0,2.382-1.994,4.308-4.324,4.308c-2.398,0-4.324-1.977-4.324-4.308
					c0-2.433,1.994-4.341,4.324-4.341S196.967-10.306,196.967-7.874z M195.732-7.924c0-1.738-1.4-3.125-3.09-3.125
					c-1.738,0-3.125,1.387-3.125,3.125c0,1.724,1.387,3.125,3.125,3.125C194.33-4.799,195.732-6.201,195.732-7.924z"/>
			</g>
		</g>
	</g>
</g>
<g>
	<g>
		<path fill="#FFFFFF" d="M175.943-28.05c1.926,0,3.463,1.553,3.463,3.461s-1.537,3.463-3.463,3.463s-3.479-1.555-3.479-3.463
			S174.018-28.05,175.943-28.05z"/>
		<g>
			<g>
				<path fill="#575A5B" d="M175.96-28.914c2.382,0,4.308,1.994,4.308,4.324c0,2.396-1.977,4.324-4.308,4.324
					c-2.433,0-4.341-1.994-4.341-4.324S173.527-28.914,175.96-28.914z M175.909-27.679c-1.738,0-3.125,1.4-3.125,3.09
					c0,1.738,1.387,3.125,3.125,3.125c1.724,0,3.125-1.387,3.125-3.125C179.034-26.277,177.633-27.679,175.909-27.679z"/>
			</g>
		</g>
	</g>
	<g>
		<path fill="#FFFFFF" d="M209.342-28.05c1.926,0,3.463,1.553,3.463,3.461s-1.537,3.463-3.463,3.463c-1.928,0-3.48-1.555-3.48-3.463
			S207.414-28.05,209.342-28.05z"/>
		<g>
			<g>
				<path fill="#575A5B" d="M209.357-28.914c2.383,0,4.309,1.994,4.309,4.324c0,2.396-1.977,4.324-4.309,4.324
					c-2.432,0-4.34-1.994-4.34-4.324S206.926-28.914,209.357-28.914z M209.307-27.679c-1.738,0-3.125,1.4-3.125,3.09
					c0,1.738,1.387,3.125,3.125,3.125c1.725,0,3.125-1.387,3.125-3.125C212.432-26.277,211.031-27.679,209.307-27.679z"/>
			</g>
		</g>
	</g>
</g>
<path fill="#FFFFFF" d="M194.632-24.82c0,0.953-0.77,1.73-1.732,1.73c-0.955,0-1.73-0.777-1.73-1.73c0-0.955,0.775-1.731,1.73-1.731
	C193.862-26.551,194.632-25.775,194.632-24.82z"/>
<g>
	<g>
		<path d="M194.909-24.644c0,1.217-1.014,2.18-2.195,2.18c-1.217,0-2.196-0.996-2.196-2.18c0-1.215,1.015-2.194,2.196-2.194
			S194.909-25.859,194.909-24.644z M194.284-24.661c0-0.879-0.709-1.588-1.57-1.588c-0.879,0-1.588,0.709-1.588,1.588
			c0,0.861,0.709,1.571,1.588,1.571C193.575-23.089,194.284-23.798,194.284-24.661z"/>
	</g>
</g>
</svg>
