<?xml version="1.0" encoding="utf-8"?>
<!-- Generator: Adobe Illustrator 16.0.0, SVG Export Plug-In . SVG Version: 6.00 Build 0)  -->
<!DOCTYPE svg PUBLIC "-//W3C//DTD SVG 1.1//EN" "http://www.w3.org/Graphics/SVG/1.1/DTD/svg11.dtd">
<svg version="1.1" id="Capa_1" xmlns="http://www.w3.org/2000/svg" xmlns:xlink="http://www.w3.org/1999/xlink" x="0px" y="0px"
	 width="60px" height="60px" viewBox="0 0 60 60" enable-background="new 0 0 60 60" xml:space="preserve">
<g>
	<line fill="#575A5B" x1="30" y1="50.229" x2="30" y2="9.771"/>
	<rect x="29.75" y="9.771" fill="#575A5B" width="0.5" height="40.457"/>
</g>
<g>
	<path fill="#FFFFFF" d="M115.963,9.76c0,1.926-1.545,3.463-3.463,3.463c-1.909,0-3.463-1.537-3.463-3.463
		c0-1.926,1.554-3.479,3.463-3.479C114.418,6.281,115.963,7.835,115.963,9.76z"/>
	<path fill="#FFFFFF" d="M115.963,9.76c0,1.926-1.545,3.463-3.463,3.463c-1.909,0-3.463-1.537-3.463-3.463
		c0-1.926,1.554-3.479,3.463-3.479C114.418,6.281,115.963,7.835,115.963,9.76z"/>
	<g>
		<g>
			<path d="M116.824,9.777c0,2.382-1.994,4.308-4.324,4.308c-2.391,0-4.325-1.977-4.325-4.308c0-2.433,1.993-4.341,4.325-4.341
				C114.83,5.436,116.824,7.344,116.824,9.777z M115.592,9.726c0-1.739-1.395-3.125-3.092-3.125c-1.732,0-3.125,1.386-3.125,3.125
				c0,1.724,1.393,3.125,3.125,3.125C114.197,12.851,115.592,11.45,115.592,9.726z"/>
		</g>
	</g>
</g>
<g>
	<path fill="#FFFFFF" d="M101.324,16.517c0,1.926-1.553,3.463-3.463,3.463c-1.908,0-3.463-1.537-3.463-3.463
		c0-1.926,1.555-3.479,3.463-3.479C99.771,13.038,101.324,14.591,101.324,16.517z"/>
	<g>
		<g>
			<path d="M102.188,16.534c0,2.382-1.994,4.308-4.326,4.308c-2.397,0-4.324-1.977-4.324-4.308c0-2.433,1.994-4.341,4.324-4.341
				C100.193,12.193,102.188,14.101,102.188,16.534z M100.953,16.483c0-1.739-1.401-3.125-3.092-3.125
				c-1.738,0-3.125,1.386-3.125,3.125c0,1.724,1.387,3.125,3.125,3.125C99.551,19.608,100.953,18.207,100.953,16.483z"/>
		</g>
	</g>
</g>
<g>
	<path fill="#FFFFFF" d="M130.785,16.247c0,1.926-1.555,3.463-3.463,3.463c-1.91,0-3.463-1.537-3.463-3.463
		c0-1.926,1.553-3.479,3.463-3.479C129.23,12.767,130.785,14.321,130.785,16.247z"/>
	<g>
		<g>
			<path d="M131.646,16.263c0,2.382-1.994,4.308-4.324,4.308c-2.398,0-4.324-1.977-4.324-4.308c0-2.432,1.992-4.341,4.324-4.341
				C129.652,11.922,131.646,13.832,131.646,16.263z M130.412,16.213c0-1.74-1.4-3.125-3.09-3.125c-1.74,0-3.125,1.385-3.125,3.125
				c0,1.723,1.385,3.125,3.125,3.125C129.012,19.338,130.412,17.936,130.412,16.213z"/>
		</g>
	</g>
</g>
<g>
	<path fill="#FFFFFF" d="M101.461,44.219c0,1.926-1.555,3.463-3.463,3.463c-1.909,0-3.463-1.537-3.463-3.463
		c0-1.924,1.554-3.479,3.463-3.479C99.906,40.74,101.461,42.295,101.461,44.219z"/>
	<g>
		<g>
			<path d="M102.322,44.236c0,2.383-1.994,4.309-4.324,4.309c-2.398,0-4.324-1.977-4.324-4.309c0-2.433,1.993-4.342,4.324-4.342
				C100.328,39.895,102.322,41.805,102.322,44.236z M101.089,44.186c0-1.74-1.401-3.125-3.091-3.125
				c-1.74,0-3.125,1.385-3.125,3.125c0,1.723,1.385,3.125,3.125,3.125C99.688,47.311,101.089,45.908,101.089,44.186z"/>
		</g>
	</g>
</g>
<g>
	<path fill="#FFFFFF" d="M130.785,44.219c0,1.926-1.555,3.463-3.463,3.463c-1.91,0-3.463-1.537-3.463-3.463
		c0-1.924,1.553-3.479,3.463-3.479C129.23,40.74,130.785,42.295,130.785,44.219z"/>
	<g>
		<g>
			<path d="M131.646,44.236c0,2.383-1.994,4.309-4.324,4.309c-2.398,0-4.324-1.977-4.324-4.309c0-2.433,1.992-4.342,4.324-4.342
				C129.652,39.895,131.646,41.805,131.646,44.236z M130.412,44.186c0-1.74-1.4-3.125-3.09-3.125c-1.74,0-3.125,1.385-3.125,3.125
				c0,1.723,1.385,3.125,3.125,3.125C129.012,47.311,130.412,45.908,130.412,44.186z"/>
		</g>
	</g>
</g>
<g>
	<path fill="#FFFFFF" d="M95.109,29.946c0,1.925-1.555,3.462-3.463,3.462c-1.91,0-3.464-1.537-3.464-3.462
		c0-1.926,1.554-3.479,3.464-3.479C93.555,26.467,95.109,28.02,95.109,29.946z"/>
	<g>
		<g>
			<path d="M95.97,29.963c0,2.38-1.993,4.307-4.323,4.307c-2.398,0-4.324-1.975-4.324-4.307c0-2.433,1.992-4.342,4.324-4.342
				C93.977,25.621,95.97,27.531,95.97,29.963z M94.736,29.913c0-1.74-1.4-3.125-3.09-3.125c-1.74,0-3.125,1.385-3.125,3.125
				c0,1.722,1.385,3.125,3.125,3.125C93.336,33.037,94.736,31.635,94.736,29.913z"/>
		</g>
	</g>
</g>
<path fill="#FFFFFF" d="M116.477,49.912c0,1.926-1.537,3.463-3.463,3.463c-1.908,0-3.454-1.537-3.454-3.463s1.546-3.48,3.454-3.48
	C114.939,46.432,116.477,47.986,116.477,49.912z"/>
<g>
	<g>
		<path d="M116.824,50.182c0,2.383-1.994,4.309-4.324,4.309c-2.391,0-4.325-1.977-4.325-4.309c0-2.432,1.993-4.34,4.325-4.34
			C114.83,45.842,116.824,47.75,116.824,50.182z M115.592,50.131c0-1.738-1.395-3.125-3.092-3.125c-1.732,0-3.125,1.387-3.125,3.125
			c0,1.725,1.393,3.125,3.125,3.125C114.197,53.256,115.592,51.855,115.592,50.131z"/>
	</g>
</g>
<path fill="#FFFFFF" d="M136.461,29.946c0,1.925-1.555,3.462-3.463,3.462s-3.463-1.537-3.463-3.462c0-1.926,1.555-3.479,3.463-3.479
	C134.906,26.466,136.461,28.02,136.461,29.946z"/>
<g>
	<g>
		<path d="M137.322,29.963c0,2.38-1.994,4.307-4.324,4.307c-2.398,0-4.324-1.976-4.324-4.307c0-2.433,1.994-4.342,4.324-4.342
			S137.322,27.531,137.322,29.963z M136.09,29.913c0-1.74-1.402-3.125-3.092-3.125c-1.74,0-3.125,1.385-3.125,3.125
			c0,1.722,1.385,3.125,3.125,3.125C134.688,33.037,136.09,31.635,136.09,29.913z"/>
	</g>
</g>
<line fill="none" stroke="#231F20" stroke-width="1.5" stroke-miterlimit="10" x1="111.076" y1="29.164" x2="100.924" y2="19.09"/>
<line fill="none" stroke="#231F20" stroke-width="1.5" stroke-miterlimit="10" x1="125.043" y1="41.703" x2="114.107" y2="30.902"/>
<line fill="none" stroke="#231F20" stroke-width="1.5" stroke-miterlimit="10" x1="111.857" y1="31.615" x2="101.113" y2="41.703"/>
<line fill="none" stroke="#231F20" stroke-width="1.5" stroke-miterlimit="10" x1="124.787" y1="18.46" x2="113.562" y2="28.561"/>
<g>
	
		<rect x="28.574" y="18.299" transform="matrix(0.7071 -0.7071 0.7071 0.7071 -12.2094 29.7641)" fill="#575A5B" width="2.5" height="22.642"/>
</g>
<g>
	<path fill="#FFFFFF" d="M14.819,22.316c2.042,2.042,5.354,2.043,7.396,0c2.042-2.042,2.042-5.354-0.001-7.396
		c-2.043-2.043-5.354-2.042-7.395-0.001C12.776,16.963,12.776,20.273,14.819,22.316"/>
	<path fill="#575A5B" d="M22.956,23.056c-2.447,2.447-6.429,2.448-8.876,0c-2.447-2.447-2.447-6.428,0-8.875
		c2.446-2.446,6.428-2.447,8.875,0C25.403,16.628,25.401,20.609,22.956,23.056 M15.56,15.659c-1.632,1.632-1.631,4.285,0,5.917
		c1.632,1.632,4.285,1.632,5.917,0c1.63-1.629,1.631-4.285-0.001-5.917C19.845,14.028,17.189,14.029,15.56,15.659"/>
</g>
<g>
	<path fill="#FFFFFF" d="M37.784,45.08c2.042,2.042,5.354,2.042,7.396-0.001c2.043-2.042,2.043-5.354,0.001-7.396
		c-2.043-2.043-5.354-2.042-7.397,0C35.742,39.726,35.741,43.037,37.784,45.08"/>
	<path fill="#575A5B" d="M45.921,45.819c-2.447,2.447-6.429,2.447-8.876,0s-2.448-6.43-0.001-8.877s6.43-2.445,8.877,0.002
		S48.368,43.372,45.921,45.819 M38.524,38.423c-1.631,1.631-1.632,4.286,0,5.918c1.63,1.63,4.286,1.63,5.917-0.001
		s1.63-4.286,0-5.916C42.81,36.791,40.155,36.791,38.524,38.423"/>
</g>
<g>
	
		<rect x="28.37" y="18.856" transform="matrix(-0.7071 -0.7071 0.7071 -0.7071 29.2267 72.4591)" fill="#575A5B" width="2.5" height="22.642"/>
</g>
<g>
	<path fill="#FFFFFF" d="M22.316,45.181c2.042-2.042,2.043-5.354,0-7.396c-2.042-2.042-5.354-2.042-7.396,0.001
		c-2.043,2.043-2.042,5.354-0.001,7.395C16.962,47.224,20.273,47.224,22.316,45.181"/>
	<path fill="#575A5B" d="M23.056,37.044c2.447,2.447,2.448,6.429,0,8.877c-2.447,2.447-6.428,2.446-8.875-0.001
		c-2.446-2.446-2.447-6.428,0-8.875C16.627,34.597,20.609,34.599,23.056,37.044 M15.659,44.44c1.632,1.632,4.286,1.632,5.917,0
		s1.632-4.285,0-5.917c-1.629-1.63-4.286-1.631-5.917,0.001C14.028,40.155,14.029,42.811,15.659,44.44"/>
</g>
<g>
	<path fill="#FFFFFF" d="M45.08,22.216c2.042-2.042,2.042-5.354-0.001-7.396c-2.042-2.043-5.354-2.043-7.396-0.001
		c-2.043,2.043-2.042,5.354,0,7.397C39.726,24.258,43.037,24.259,45.08,22.216"/>
	<path fill="#575A5B" d="M45.819,14.08c2.447,2.447,2.447,6.429,0,8.876s-6.43,2.448-8.877,0.001s-2.445-6.43,0.002-8.877
		S43.372,11.632,45.819,14.08 M38.423,21.476c1.631,1.631,4.286,1.632,5.918,0c1.63-1.63,1.63-4.286-0.001-5.917
		s-4.286-1.63-5.916,0C36.791,17.191,36.791,19.845,38.423,21.476"/>
</g>
<g>
	<g>
		<path fill="#FFFFFF" d="M33.461,13.301c0,1.926-1.553,3.463-3.461,3.463c-1.908,0-3.463-1.537-3.463-3.463S28.091,9.822,30,9.822
			C31.908,9.822,33.461,11.375,33.461,13.301z"/>
		<g>
			<g>
				<path fill="#575A5B" d="M34.324,13.317c0,2.382-1.994,4.308-4.325,4.308c-2.397,0-4.324-1.977-4.324-4.308
					c0-2.433,1.994-4.341,4.324-4.341C32.33,8.977,34.324,10.885,34.324,13.317z M33.09,13.267c0-1.738-1.4-3.125-3.09-3.125
					c-1.738,0-3.125,1.387-3.125,3.125c0,1.724,1.387,3.125,3.125,3.125C31.688,16.392,33.09,14.99,33.09,13.267z"/>
			</g>
		</g>
	</g>
	<g>
		<path fill="#FFFFFF" d="M33.461,46.699c0,1.926-1.553,3.463-3.461,3.463c-1.908,0-3.463-1.537-3.463-3.463
			c0-1.927,1.555-3.479,3.463-3.479C31.908,43.22,33.461,44.772,33.461,46.699z"/>
		<g>
			<g>
				<path fill="#575A5B" d="M34.324,46.716c0,2.382-1.994,4.308-4.325,4.308c-2.397,0-4.324-1.977-4.324-4.308
					c0-2.433,1.994-4.341,4.324-4.341C32.33,42.375,34.324,44.283,34.324,46.716z M33.09,46.665c0-1.738-1.4-3.125-3.09-3.125
					c-1.738,0-3.125,1.387-3.125,3.125c0,1.724,1.387,3.125,3.125,3.125C31.688,49.79,33.09,48.389,33.09,46.665z"/>
			</g>
		</g>
	</g>
</g>
<g>
	<g>
		<path fill="#FFFFFF" d="M13.301,26.539c1.926,0,3.463,1.553,3.463,3.462c0,1.908-1.537,3.462-3.463,3.462S9.822,31.908,9.822,30
			C9.822,28.091,11.375,26.539,13.301,26.539z"/>
		<g>
			<g>
				<path fill="#575A5B" d="M13.317,25.675c2.382,0,4.308,1.994,4.308,4.325c0,2.396-1.977,4.324-4.308,4.324
					c-2.433,0-4.341-1.994-4.341-4.324C8.977,27.669,10.885,25.675,13.317,25.675z M13.267,26.91c-1.738,0-3.125,1.4-3.125,3.091
					c0,1.738,1.387,3.125,3.125,3.125c1.724,0,3.125-1.387,3.125-3.125C16.392,28.312,14.99,26.91,13.267,26.91z"/>
			</g>
		</g>
	</g>
	<g>
		<path fill="#FFFFFF" d="M46.699,26.539c1.926,0,3.463,1.553,3.463,3.462c0,1.908-1.537,3.462-3.463,3.462
			c-1.928,0-3.48-1.555-3.48-3.462C43.219,28.091,44.771,26.539,46.699,26.539z"/>
		<g>
			<g>
				<path fill="#575A5B" d="M46.715,25.675c2.383,0,4.309,1.994,4.309,4.325c0,2.396-1.977,4.324-4.309,4.324
					c-2.432,0-4.34-1.994-4.34-4.324C42.375,27.669,44.283,25.675,46.715,25.675z M46.664,26.91c-1.738,0-3.125,1.4-3.125,3.091
					c0,1.738,1.387,3.125,3.125,3.125c1.725,0,3.125-1.387,3.125-3.125C49.789,28.312,48.389,26.91,46.664,26.91z"/>
			</g>
		</g>
	</g>
</g>
<path fill="#FFFFFF" d="M31.989,29.769c0,0.954-0.77,1.731-1.732,1.731c-0.955,0-1.73-0.777-1.73-1.731
	c0-0.955,0.775-1.731,1.73-1.731C31.22,28.038,31.989,28.814,31.989,29.769z"/>
<g>
	<g>
		<path d="M32.267,29.946c0,1.216-1.014,2.179-2.195,2.179c-1.217,0-2.196-0.996-2.196-2.179c0-1.216,1.015-2.195,2.196-2.195
			S32.267,28.73,32.267,29.946z M31.642,29.929c0-0.879-0.709-1.588-1.57-1.588c-0.879,0-1.588,0.709-1.588,1.588
			c0,0.861,0.709,1.571,1.588,1.571C30.933,31.5,31.642,30.791,31.642,29.929z"/>
	</g>
</g>
</svg>
