<?xml version="1.0" encoding="utf-8"?>
<!-- Generator: Adobe Illustrator 16.0.0, SVG Export Plug-In . SVG Version: 6.00 Build 0)  -->
<!DOCTYPE svg PUBLIC "-//W3C//DTD SVG 1.1//EN" "http://www.w3.org/Graphics/SVG/1.1/DTD/svg11.dtd">
<svg version="1.1" id="Capa_1" xmlns="http://www.w3.org/2000/svg" xmlns:xlink="http://www.w3.org/1999/xlink" x="0px" y="0px"
	 width="60px" height="60px" viewBox="0 0 60 60" enable-background="new 0 0 60 60" xml:space="preserve">
<g>
	<g>
		<line fill="#575A5B" x1="50.229" y1="30" x2="9.771" y2="30"/>
		<rect x="9.771" y="29.75" fill="#575A5B" width="40.457" height="0.5"/>
	</g>
	<g>
		<g>
			<path fill="#FFFFFF" d="M13.301,26.539c1.926,0,3.463,1.553,3.463,3.461s-1.537,3.463-3.463,3.463S9.822,31.908,9.822,30
				S11.375,26.539,13.301,26.539z"/>
			<g>
				<g>
					<path fill="#575A5B" d="M13.317,25.676c2.382,0,4.308,1.994,4.308,4.324c0,2.398-1.977,4.324-4.308,4.324
						c-2.433,0-4.341-1.994-4.341-4.324S10.885,25.676,13.317,25.676z M13.267,26.91c-1.738,0-3.125,1.4-3.125,3.09
						c0,1.738,1.387,3.125,3.125,3.125c1.724,0,3.125-1.387,3.125-3.125C16.392,28.312,14.99,26.91,13.267,26.91z"/>
				</g>
			</g>
		</g>
		<g>
			<path fill="#FFFFFF" d="M46.699,26.539c1.926,0,3.463,1.553,3.463,3.461s-1.537,3.463-3.463,3.463
				c-1.928,0-3.48-1.555-3.48-3.463S44.771,26.539,46.699,26.539z"/>
			<g>
				<g>
					<path fill="#575A5B" d="M46.715,25.676c2.383,0,4.309,1.994,4.309,4.324c0,2.398-1.977,4.324-4.309,4.324
						c-2.432,0-4.34-1.994-4.34-4.324S44.283,25.676,46.715,25.676z M46.664,26.91c-1.738,0-3.125,1.4-3.125,3.09
						c0,1.738,1.387,3.125,3.125,3.125c1.725,0,3.125-1.387,3.125-3.125C49.789,28.312,48.389,26.91,46.664,26.91z"/>
				</g>
			</g>
		</g>
	</g>
</g>
<g>
	<g>
		<line fill="#575A5B" x1="30" y1="50.229" x2="30" y2="9.771"/>
		<rect x="29.75" y="9.771" fill="#575A5B" width="0.5" height="40.457"/>
	</g>
	<g>
		<g>
			<path fill="#FFFFFF" d="M33.461,13.301c0,1.926-1.553,3.463-3.461,3.463s-3.463-1.537-3.463-3.463S28.092,9.822,30,9.822
				S33.461,11.375,33.461,13.301z"/>
			<g>
				<g>
					<path fill="#575A5B" d="M34.324,13.317c0,2.382-1.994,4.308-4.324,4.308c-2.398,0-4.324-1.977-4.324-4.308
						c0-2.433,1.994-4.341,4.324-4.341S34.324,10.885,34.324,13.317z M33.09,13.267c0-1.738-1.4-3.125-3.09-3.125
						c-1.738,0-3.125,1.387-3.125,3.125c0,1.724,1.387,3.125,3.125,3.125C31.688,16.392,33.09,14.99,33.09,13.267z"/>
				</g>
			</g>
		</g>
		<g>
			<path fill="#FFFFFF" d="M33.461,46.699c0,1.926-1.553,3.463-3.461,3.463s-3.463-1.537-3.463-3.463
				c0-1.927,1.555-3.479,3.463-3.479S33.461,44.772,33.461,46.699z"/>
			<g>
				<g>
					<path fill="#575A5B" d="M34.324,46.716c0,2.382-1.994,4.308-4.324,4.308c-2.398,0-4.324-1.977-4.324-4.308
						c0-2.433,1.994-4.341,4.324-4.341S34.324,44.283,34.324,46.716z M33.09,46.665c0-1.738-1.4-3.125-3.09-3.125
						c-1.738,0-3.125,1.387-3.125,3.125c0,1.724,1.387,3.125,3.125,3.125C31.688,49.79,33.09,48.389,33.09,46.665z"/>
				</g>
			</g>
		</g>
	</g>
</g>
<g>
	<path fill="#FFFFFF" d="M24.77,30c0,2.887,2.341,5.229,5.229,5.229c2.887,0,5.229-2.34,5.229-5.229c0-2.89-2.342-5.229-5.228-5.229
		C27.111,24.77,24.77,27.11,24.77,30"/>
	<path fill="#575A5B" d="M30,36.275c-3.461,0-6.277-2.814-6.276-6.275c0-3.461,2.814-6.275,6.275-6.275
		c3.459,0,6.276,2.814,6.276,6.275S33.459,36.275,30,36.275 M30,25.815c-2.308,0-4.184,1.877-4.184,4.185
		c0,2.307,1.876,4.184,4.184,4.184c2.304,0,4.183-1.877,4.183-4.186C34.184,27.692,32.305,25.815,30,25.815"/>
</g>
</svg>
