<?xml version="1.0" encoding="utf-8"?>
<!-- Generator: Adobe Illustrator 16.0.0, SVG Export Plug-In . SVG Version: 6.00 Build 0)  -->
<!DOCTYPE svg PUBLIC "-//W3C//DTD SVG 1.1//EN" "http://www.w3.org/Graphics/SVG/1.1/DTD/svg11.dtd">
<svg version="1.1" id="Capa_1" xmlns="http://www.w3.org/2000/svg" xmlns:xlink="http://www.w3.org/1999/xlink" x="0px" y="0px"
	 width="60px" height="60px" viewBox="0 0 60 60" enable-background="new 0 0 60 60" xml:space="preserve">
<g>
	<line fill="#575A5B" x1="119.229" y1="51.89" x2="119.229" y2="11.433"/>
	<rect x="118.979" y="11.433" fill="#575A5B" width="0.5" height="40.457"/>
</g>
<g>
	<path fill="#FFFFFF" d="M111.545,46.842c2.042-2.042,2.043-5.354,0-7.396c-2.042-2.042-5.354-2.042-7.396,0.001
		s-2.041,5.354,0,7.395C106.191,48.885,109.502,48.885,111.545,46.842"/>
	<path fill="#575A5B" d="M112.284,38.705c2.447,2.447,2.448,6.429,0,8.877c-2.447,2.447-6.429,2.446-8.876-0.001
		c-2.445-2.446-2.447-6.428,0-8.875C105.855,36.258,109.838,36.26,112.284,38.705 M104.887,46.102c1.633,1.632,4.286,1.632,5.918,0
		s1.632-4.285,0-5.917c-1.629-1.63-4.285-1.631-5.918,0.001C103.256,41.816,103.258,44.472,104.887,46.102"/>
</g>
<g>
	<path fill="#FFFFFF" d="M122.689,48.36c0,1.926-1.553,3.463-3.461,3.463s-3.463-1.537-3.463-3.463c0-1.927,1.555-3.479,3.463-3.479
		S122.689,46.434,122.689,48.36z"/>
	<g>
		<g>
			<path fill="#575A5B" d="M123.553,48.377c0,2.382-1.994,4.308-4.324,4.308c-2.398,0-4.324-1.977-4.324-4.308
				c0-2.433,1.994-4.341,4.324-4.341S123.553,45.944,123.553,48.377z M122.318,48.326c0-1.738-1.4-3.125-3.09-3.125
				c-1.738,0-3.125,1.387-3.125,3.125c0,1.724,1.387,3.125,3.125,3.125C120.916,51.451,122.318,50.05,122.318,48.326z"/>
		</g>
	</g>
</g>
<g>
	<g>
		<path fill="#FFFFFF" d="M102.529,28.2c1.926,0,3.463,1.553,3.463,3.462c0,1.907-1.537,3.462-3.463,3.462s-3.479-1.555-3.479-3.462
			C99.051,29.752,100.604,28.2,102.529,28.2z"/>
		<g>
			<g>
				<path fill="#575A5B" d="M102.546,27.336c2.382,0,4.308,1.994,4.308,4.326c0,2.396-1.977,4.323-4.308,4.323
					c-2.433,0-4.341-1.994-4.341-4.323C98.205,29.331,100.113,27.336,102.546,27.336z M102.495,28.571
					c-1.738,0-3.125,1.4-3.125,3.091c0,1.737,1.387,3.124,3.125,3.124c1.724,0,3.125-1.387,3.125-3.124
					C105.62,29.973,104.219,28.571,102.495,28.571z"/>
			</g>
		</g>
	</g>
	<g>
		<path fill="#FFFFFF" d="M135.928,28.2c1.926,0,3.463,1.553,3.463,3.462c0,1.907-1.537,3.462-3.463,3.462
			c-1.928,0-3.48-1.555-3.48-3.462C132.447,29.752,134,28.2,135.928,28.2z"/>
		<g>
			<g>
				<path fill="#575A5B" d="M135.943,27.336c2.383,0,4.309,1.994,4.309,4.326c0,2.396-1.977,4.323-4.309,4.323
					c-2.432,0-4.34-1.994-4.34-4.323C131.604,29.331,133.512,27.336,135.943,27.336z M135.893,28.571
					c-1.738,0-3.125,1.4-3.125,3.091c0,1.737,1.387,3.124,3.125,3.124c1.725,0,3.125-1.387,3.125-3.124
					C139.018,29.973,137.617,28.571,135.893,28.571z"/>
			</g>
		</g>
	</g>
</g>
<path fill="#FFFFFF" d="M121.218,31.43c0,0.954-0.77,1.731-1.732,1.731c-0.955,0-1.73-0.777-1.73-1.731
	c0-0.955,0.775-1.73,1.73-1.73C120.448,29.699,121.218,30.475,121.218,31.43z"/>
<g>
	<g>
		<path d="M121.495,31.607c0,1.216-1.014,2.179-2.195,2.179c-1.217,0-2.196-0.996-2.196-2.179c0-1.216,1.015-2.195,2.196-2.195
			S121.495,30.391,121.495,31.607z M120.87,31.59c0-0.879-0.709-1.588-1.57-1.588c-0.879,0-1.588,0.709-1.588,1.588
			c0,0.861,0.709,1.571,1.588,1.571C120.161,33.161,120.87,32.452,120.87,31.59z"/>
	</g>
</g>
<path fill="#FFFFFF" d="M32.475,44.2c0,1.19-0.961,2.172-2.171,2.172c-1.19,0-2.171-0.98-2.171-2.172
	c0-1.211,0.98-2.172,2.171-2.172C31.514,42.03,32.475,42.991,32.475,44.2z"/>
<g>
	<g>
		<path d="M32.715,44.2c0,1.482-1.253,2.693-2.715,2.693c-1.503,0-2.714-1.23-2.714-2.693c0-1.523,1.252-2.715,2.714-2.715
			S32.715,42.677,32.715,44.2z M31.941,44.159c0-1.086-0.877-1.942-1.941-1.942c-1.086,0-1.963,0.856-1.963,1.942
			s0.877,1.963,1.963,1.963C31.064,46.122,31.941,45.245,31.941,44.159z"/>
	</g>
</g>
<g>
	<rect x="28.957" y="23.756" fill="#575A5B" width="2.5" height="22.642"/>
</g>
<g>
	<path fill="#FFFFFF" d="M33.699,21.543c2.041-2.042,2.041-5.354-0.002-7.396c-2.041-2.043-5.354-2.043-7.396-0.001
		c-2.043,2.043-2.042,5.354,0,7.397C28.344,23.585,31.656,23.586,33.699,21.543"/>
	<path fill="#575A5B" d="M34.438,13.406c2.447,2.447,2.447,6.429,0,8.876s-6.429,2.448-8.876,0.001s-2.445-6.43,0.002-8.877
		S31.99,10.959,34.438,13.406 M27.042,20.803c1.631,1.631,4.287,1.632,5.917,0c1.631-1.63,1.631-4.286,0-5.917s-4.287-1.63-5.917,0
		C25.41,16.518,25.41,19.172,27.042,20.803"/>
</g>
<g>
	<path fill="#FFFFFF" d="M43.517,44.735c0-7.937-6.034-14.408-13.427-14.408c-7.392,0-13.405,6.473-13.405,14.408"/>
	<path fill="#575A5B" d="M44.616,44.735h-2.199c0-7.338-5.53-13.309-12.328-13.309c-6.785,0-12.305,5.971-12.305,13.309h-2.2
		c0-8.551,6.507-15.508,14.505-15.508C38.1,29.227,44.616,36.185,44.616,44.735z"/>
</g>
<g>
	<path fill="#FFFFFF" d="M33.461,44.104c0,1.926-1.553,3.463-3.461,3.463s-3.463-1.537-3.463-3.463s1.555-3.479,3.463-3.479
		S33.461,42.179,33.461,44.104z"/>
	<g>
		<g>
			<path fill="#575A5B" d="M34.324,44.122c0,2.381-1.994,4.307-4.324,4.307c-2.398,0-4.324-1.977-4.324-4.307
				c0-2.434,1.994-4.342,4.324-4.342S34.324,41.688,34.324,44.122z M33.09,44.071c0-1.738-1.4-3.125-3.09-3.125
				c-1.738,0-3.125,1.387-3.125,3.125c0,1.723,1.387,3.125,3.125,3.125C31.688,47.196,33.09,45.794,33.09,44.071z"/>
		</g>
	</g>
</g>
<g>
	<path fill="#FFFFFF" d="M31.918,30.307c0,0.954-0.77,1.731-1.732,1.731c-0.955,0-1.73-0.777-1.73-1.731
		c0-0.955,0.775-1.731,1.73-1.731C31.148,28.576,31.918,29.352,31.918,30.307z"/>
	<g>
		<g>
			<path d="M32.195,30.484c0,1.216-1.014,2.179-2.195,2.179c-1.217,0-2.196-0.996-2.196-2.179c0-1.216,1.015-2.195,2.196-2.195
				C31.182,28.289,32.195,29.268,32.195,30.484z M31.57,30.467c0-0.879-0.709-1.588-1.57-1.588c-0.879,0-1.588,0.709-1.588,1.588
				c0,0.861,0.709,1.571,1.588,1.571C30.861,32.038,31.57,31.329,31.57,30.467z"/>
		</g>
	</g>
</g>
</svg>
