<?xml version="1.0" encoding="utf-8"?>
<!-- Generator: Adobe Illustrator 16.0.0, SVG Export Plug-In . SVG Version: 6.00 Build 0)  -->
<!DOCTYPE svg PUBLIC "-//W3C//DTD SVG 1.1//EN" "http://www.w3.org/Graphics/SVG/1.1/DTD/svg11.dtd">
<svg version="1.1" id="Capa_1" xmlns="http://www.w3.org/2000/svg" xmlns:xlink="http://www.w3.org/1999/xlink" x="0px" y="0px"
	 width="60px" height="60px" viewBox="0 0 60 60" enable-background="new 0 0 60 60" xml:space="preserve">
<line fill="none" stroke="#231F20" stroke-width="0.5" stroke-miterlimit="10" x1="87.926" y1="56.69" x2="87.926" y2="6.69"/>
<path fill="#FFFFFF" d="M90.358,31.617c0,1.253-1.013,2.255-2.255,2.255s-2.255-1.002-2.255-2.255c0-1.252,1.013-2.254,2.255-2.254
	S90.358,30.365,90.358,31.617z"/>
<g>
	<g>
		<path d="M90.64,31.701c0,1.482-1.252,2.692-2.714,2.692c-1.504,0-2.715-1.23-2.715-2.692c0-1.524,1.254-2.714,2.715-2.714
			C89.388,28.987,90.64,30.176,90.64,31.701z M89.867,31.659c0-1.086-0.877-1.941-1.941-1.941c-1.086,0-1.961,0.855-1.961,1.941
			s0.875,1.963,1.961,1.963C88.99,33.622,89.867,32.745,89.867,31.659z"/>
	</g>
</g>
<g>
	<path fill="#FFFFFF" d="M110.524,14.77c0,2.359-1.92,4.28-4.278,4.28c-2.359,0-4.279-1.921-4.279-4.28c0-2.38,1.92-4.3,4.279-4.3
		C108.604,10.469,110.524,12.39,110.524,14.77z"/>
	<g>
		<g>
			<path d="M111.588,14.77c0,2.965-2.463,5.324-5.344,5.324c-2.964,0-5.345-2.422-5.345-5.324c0-2.985,2.464-5.365,5.345-5.365
				S111.588,11.784,111.588,14.77z M110.065,14.708c0-2.129-1.731-3.862-3.819-3.862c-2.15,0-3.863,1.733-3.863,3.862
				c0,2.13,1.713,3.862,3.863,3.862C108.334,18.569,110.065,16.836,110.065,14.708z"/>
		</g>
	</g>
</g>
<g>
	<path fill="#FFFFFF" d="M110.524,49.343c0,2.357-1.92,4.279-4.278,4.279c-2.359,0-4.279-1.922-4.279-4.279
		c0-2.381,1.92-4.301,4.279-4.301C108.604,45.042,110.524,46.962,110.524,49.343z"/>
	<g>
		<g>
			<path d="M111.588,49.343c0,2.964-2.463,5.322-5.344,5.322c-2.964,0-5.345-2.422-5.345-5.322c0-2.986,2.464-5.365,5.345-5.365
				S111.588,46.356,111.588,49.343z M110.065,49.28c0-2.13-1.731-3.863-3.819-3.863c-2.15,0-3.863,1.733-3.863,3.863
				c0,2.129,1.713,3.861,3.863,3.861C108.334,53.142,110.065,51.409,110.065,49.28z"/>
		</g>
	</g>
</g>
<line fill="none" stroke="#231F20" stroke-width="1.5" stroke-miterlimit="10" x1="103.426" y1="46.231" x2="89.978" y2="32.753"/>
<line fill="none" stroke="#231F20" stroke-width="1.5" stroke-miterlimit="10" x1="103.113" y1="17.504" x2="89.242" y2="29.989"/>
<g>
	<line fill="#575A5B" x1="30" y1="50.229" x2="30" y2="9.771"/>
	<rect x="29.75" y="9.771" fill="#575A5B" width="0.5" height="40.457"/>
</g>
<g>
	
		<rect x="32.693" y="28.244" transform="matrix(0.7071 -0.7071 0.7071 0.7071 -13.9156 33.8834)" fill="#575A5B" width="2.5" height="10.991"/>
</g>
<g>
	<path fill="#FFFFFF" d="M37.784,45.08c2.042,2.042,5.354,2.042,7.396-0.001c2.043-2.042,2.043-5.354,0.001-7.396
		c-2.043-2.043-5.354-2.042-7.397,0C35.742,39.726,35.741,43.037,37.784,45.08"/>
	<path fill="#575A5B" d="M45.921,45.819c-2.447,2.447-6.429,2.447-8.876,0s-2.448-6.43-0.001-8.877s6.43-2.445,8.877,0.002
		S48.368,43.372,45.921,45.819 M38.524,38.423c-1.631,1.631-1.632,4.286,0,5.918c1.63,1.63,4.286,1.63,5.917-0.001
		s1.63-4.286,0-5.916C42.81,36.791,40.155,36.791,38.524,38.423"/>
</g>
<g>
	
		<rect x="32.56" y="20.591" transform="matrix(-0.7071 -0.7071 0.7071 -0.7071 39.3411 68.2692)" fill="#575A5B" width="2.5" height="10.792"/>
</g>
<g>
	<path fill="#FFFFFF" d="M45.08,22.217c2.042-2.043,2.042-5.355-0.001-7.396c-2.042-2.043-5.354-2.043-7.396-0.002
		c-2.043,2.043-2.042,5.355,0,7.398C39.726,24.258,43.037,24.26,45.08,22.217"/>
	<path fill="#575A5B" d="M45.819,14.08c2.447,2.447,2.447,6.428,0,8.875s-6.43,2.449-8.877,0.002s-2.445-6.43,0.002-8.877
		S43.372,11.633,45.819,14.08 M38.423,21.477c1.631,1.631,4.286,1.631,5.918,0c1.63-1.631,1.63-4.287-0.001-5.918
		s-4.286-1.629-5.916,0C36.791,17.191,36.791,19.846,38.423,21.477"/>
</g>
<path fill="#FFFFFF" d="M31.989,29.77c0,0.953-0.77,1.73-1.732,1.73c-0.955,0-1.73-0.777-1.73-1.73c0-0.955,0.775-1.731,1.73-1.731
	C31.22,28.038,31.989,28.814,31.989,29.77z"/>
<g>
	<g>
		<path d="M32.267,29.945c0,1.217-1.014,2.18-2.195,2.18c-1.217,0-2.196-0.996-2.196-2.18c0-1.215,1.015-2.194,2.196-2.194
			S32.267,28.73,32.267,29.945z M31.642,29.929c0-0.879-0.709-1.588-1.57-1.588c-0.879,0-1.588,0.709-1.588,1.588
			c0,0.861,0.709,1.571,1.588,1.571C30.933,31.5,31.642,30.791,31.642,29.929z"/>
	</g>
</g>
</svg>
