<?xml version="1.0" encoding="UTF-8" standalone="no"?>
<svg width="42px" height="88px" viewBox="0 0 42 88" version="1.1" xmlns="http://www.w3.org/2000/svg" xmlns:xlink="http://www.w3.org/1999/xlink" xmlns:sketch="http://www.bohemiancoding.com/sketch/ns">
    <!-- Generator: Sketch 3.4.4 (17249) - http://www.bohemiancoding.com/sketch -->
    <title>heart365</title>
    <desc>Created with Sketch.</desc>
    <defs></defs>
    <g id="Page-1" stroke="none" stroke-width="1" fill="none" fill-rule="evenodd" sketch:type="MSPage">
        <g id="detail" sketch:type="MSArtboardGroup" transform="translate(-518.000000, -3008.000000)">
            <g id="#11" sketch:type="MSLayerGroup" transform="translate(130.000000, 339.564646)">
                <g id="Quote" transform="translate(105.000000, 148.000000)"></g>
                <g id="heart365" transform="translate(389.000000, 2670.000000)" sketch:type="MSShapeGroup">
                    <path d="M19.9997124,29.9769091 L19.9997124,29.9769091 C19.8724575,29.9769091 19.7507026,29.9252 19.6614444,29.8337091 L11.7680098,21.7293455 C9.98403268,19.9246909 9,17.7755636 9,15.6800364 C9,12.2965455 11.2221438,10.0230909 14.5297647,10.0230909 C17.3730131,10.0230909 18.4998301,11.3007273 19.9997124,13.0840364 C21.4995948,11.3009091 22.6260523,10.0230909 25.4694444,10.0230909 C28.7774248,10.0230909 31,12.2965455 31,15.6800364 C31,17.7755636 30.0163627,19.9248727 28.2302647,21.7318182 L20.3377647,29.8337818 C20.2485065,29.9254182 20.1267516,29.9769091 19.9997124,29.9769091 L19.9997124,29.9769091 Z M14.5297647,10.9837091 C11.7475196,10.9837091 9.94963072,12.8271636 9.94963072,15.6800364 C9.94963072,17.5188727 10.8346993,19.4268727 12.4420654,21.0526545 L19.9997124,28.8124727 L27.5563889,21.0552 C29.1654804,19.4271273 30.0503693,17.5191273 30.0503693,15.6801091 C30.0503693,12.8272364 28.2521209,10.9837818 25.4694444,10.9837818 C23.0119869,10.9837818 22.1187222,12.0462182 20.6387549,13.8065091 L20.3603758,14.1369818 C20.2701111,14.2438182 20.1382908,14.3050909 19.9997124,14.3050909 L19.9997124,14.3050909 C19.8610621,14.3050909 19.7290621,14.2438182 19.639049,14.1369818 L19.3625033,13.8086182 C17.881817,12.0469455 16.9880131,10.9837091 14.5297647,10.9837091 L14.5297647,10.9837091 Z" id="Shape" fill="#000000"></path>
                    <circle id="Oval-8" stroke="#4A4A4A" stroke-width="2" cx="20" cy="20" r="20"></circle>
                    <path d="M19.9997124,74.9538182 L19.9997124,74.9538182 C19.8724575,74.9538182 19.7507026,74.9021091 19.6614444,74.8106182 L11.7680098,66.7062545 C9.98403268,64.9016 9,62.7524727 9,60.6569455 C9,57.2734545 11.2221438,55 14.5297647,55 C17.3730131,55 18.4998301,56.2776364 19.9997124,58.0609455 C21.4995948,56.2778182 22.6260523,55 25.4694444,55 C28.7774248,55 31,57.2734545 31,60.6569455 C31,62.7524727 30.0163627,64.9017818 28.2302647,66.7087273 L20.3377647,74.8106909 C20.2485065,74.9023273 20.1267516,74.9538182 19.9997124,74.9538182 L19.9997124,74.9538182 Z M14.5297647,55.9606182 C11.7475196,55.9606182 9.94963072,57.8040727 9.94963072,60.6569455 C9.94963072,62.4957818 10.8346993,64.4037818 12.4420654,66.0295636 L19.9997124,73.7893818 L27.5563889,66.0321091 C29.1654804,64.4040364 30.0503693,62.4960364 30.0503693,60.6570182 C30.0503693,57.8041455 28.2521209,55.9606909 25.4694444,55.9606909 C23.0119869,55.9606909 22.1187222,57.0231273 20.6387549,58.7834182 L20.3603758,59.1138909 C20.2701111,59.2207273 20.1382908,59.282 19.9997124,59.282 L19.9997124,59.282 C19.8610621,59.282 19.7290621,59.2207273 19.639049,59.1138909 L19.3625033,58.7855273 C17.881817,57.0238545 16.9880131,55.9606182 14.5297647,55.9606182 L14.5297647,55.9606182 Z" id="Shape-Copy" fill="#E60064"></path>
                    <circle id="Oval-8-Copy" stroke="#E60064" stroke-width="2" cx="20" cy="65" r="20"></circle>
                </g>
            </g>
            <path d="M454,3048 C454,3048 458.976899,3136.85623 567.832955,3161.83295" id="Path-215" stroke="#B1B1B1" stroke-width="2" sketch:type="MSShapeGroup"></path>
        </g>
    </g>
</svg>