<?xml version="1.0" encoding="UTF-8" standalone="no"?>
<svg width="20px" height="21px" viewBox="0 0 20 21" version="1.1" xmlns="http://www.w3.org/2000/svg" xmlns:xlink="http://www.w3.org/1999/xlink" xmlns:sketch="http://www.bohemiancoding.com/sketch/ns">
    <!-- Generator: Sketch 3.4.4 (17249) - http://www.bohemiancoding.com/sketch -->
    <title>Bookmark &amp; Tags_Bookmark &amp; tags-01</title>
    <desc>Created with Sketch.</desc>
    <defs></defs>
    <g id="Page-1" stroke="none" stroke-width="1" fill="none" fill-rule="evenodd" sketch:type="MSPage">
        <g id="detail" sketch:type="MSArtboardGroup" transform="translate(-515.000000, -2956.000000)">
            <g id="#11" sketch:type="MSLayerGroup" transform="translate(130.000000, 339.564646)">
                <g id="Quote" transform="translate(105.000000, 148.000000)"></g>
                <g id="Bookmark-&amp;-Tags_Bookmark-&amp;-tags-01" transform="translate(395.000000, 2627.327927) scale(-1, 1) translate(-395.000000, -2627.327927) translate(385.000000, 2617.327927)" fill="#231F20" sketch:type="MSShapeGroup">
                    <g id="Group">
                        <path d="M19.842,12.416 L7.947,0.521 C7.852,0.426 7.72533333,0.37 7.59133333,0.363333333 L0.566,0.024 C0.412,0.0166666667 0.264666667,0.0746666667 0.157,0.183 C0.0493333333,0.291666667 -0.00733333333,0.440333333 0.001,0.593 L0.387333333,7.57166667 C0.394333333,7.704 0.450333333,7.82933333 0.544666667,7.92366667 L12.4396667,19.8186667 C12.545,19.924 12.683,19.977 12.8216667,19.977 C12.9596667,19.977 13.0976667,19.9243333 13.2033333,19.8186667 L19.8426667,13.1796667 C19.9433333,13.078 20,12.941 20,12.798 C20,12.655 19.9433333,12.5173333 19.842,12.416 L19.842,12.416 Z M12.8213333,18.6733333 L1.45366667,7.306 L1.112,1.13166667 L7.33066667,1.432 L18.697,12.798 L12.8213333,18.6733333 L12.8213333,18.6733333 Z" id="Shape"></path>
                    </g>
                </g>
            </g>
        </g>
    </g>
</svg>